<?xml version="1.0" standalone="no"?>
<!DOCTYPE svg PUBLIC "-//W3C//DTD SVG 20010904//EN"
 "http://www.w3.org/TR/2001/REC-SVG-20010904/DTD/svg10.dtd">
<svg version="1.0" xmlns="http://www.w3.org/2000/svg"
 width="570.000000pt" height="482.000000pt" viewBox="0 0 570.000000 482.000000"
 preserveAspectRatio="xMidYMid meet">
<metadata>
Created by potrace 1.16, written by Peter Selinger 2001-2019
</metadata>
<g transform="translate(0.000000,482.000000) scale(0.100000,-0.100000)"
fill="#000000" stroke="none">
<path d="M2525 4665 c-323 -34 -593 -113 -868 -252 -439 -223 -781 -555 -973
-946 -121 -245 -174 -520 -152 -787 10 -123 56 -332 89 -402 l19 -43 -5 49
c-21 202 -26 294 -20 390 21 340 103 598 272 861 214 331 584 606 1003 745
257 85 437 113 725 114 226 0 279 -5 480 -49 590 -129 1048 -490 1319 -1039
75 -152 121 -284 152 -434 24 -118 25 -141 21 -327 -4 -170 -9 -216 -30 -307
-78 -321 -270 -648 -541 -921 -115 -115 -156 -148 -156 -128 0 25 -44 125 -75
170 -19 27 -31 52 -28 55 4 3 30 6 60 6 48 0 53 2 53 23 -1 74 -68 229 -131
300 l-40 46 46 6 c25 4 56 5 70 3 35 -7 32 15 -12 91 -50 85 -151 169 -275
230 -54 27 -95 51 -91 55 3 3 31 6 62 6 l56 1 -44 40 c-58 52 -149 94 -239
110 -76 13 -163 5 -287 -26 -27 -7 -70 -16 -95 -20 l-45 -7 36 38 c46 51 55
73 74 174 26 143 54 202 138 289 91 96 274 147 492 138 278 -12 532 -111 788
-308 l27 -21 -10 26 c-55 146 -220 341 -385 455 -154 107 -327 177 -496 202
-81 12 -316 8 -369 -7 l-25 -6 22 16 c34 25 150 81 218 104 126 43 212 55 408
56 l188 1 -33 27 c-73 61 -254 135 -401 163 -116 22 -331 22 -462 0 -98 -17
-251 -63 -308 -92 -16 -8 -31 -12 -34 -9 -3 3 5 25 17 50 44 92 225 238 443
357 l92 51 -75 -6 c-140 -11 -352 -53 -465 -91 -152 -51 -257 -95 -373 -155
-378 -197 -671 -477 -830 -795 -49 -99 -77 -185 -93 -293 -11 -72 -11 -94 4
-169 9 -47 28 -109 43 -137 27 -52 64 -104 75 -105 3 -1 18 22 33 50 61 111
197 229 340 294 166 76 282 100 476 99 129 0 162 -4 200 -20 84 -36 112 -67
130 -147 20 -93 -21 -162 -116 -192 -75 -25 -234 -58 -241 -51 -4 4 -2 15 5
26 11 18 10 18 -26 3 -20 -8 -82 -43 -137 -78 -55 -34 -115 -70 -132 -79 -32
-16 -33 -16 -33 4 0 24 -22 26 -40 5 -7 -9 -58 -50 -114 -92 l-101 -76 -3 32
-3 31 -42 -34 c-85 -69 -267 -142 -267 -107 0 33 196 191 237 191 7 0 13 5 13
11 0 31 -203 -25 -303 -83 -26 -15 -50 -28 -52 -28 -2 0 -33 -20 -69 -45 -72
-50 -155 -90 -210 -100 -20 -4 -36 -10 -36 -14 0 -4 14 -21 31 -39 38 -38 113
-68 199 -77 116 -12 343 27 494 86 42 16 111 43 154 59 179 70 323 100 510
107 213 8 331 -14 447 -81 84 -50 115 -121 115 -269 0 -188 -69 -337 -230
-497 -191 -191 -501 -364 -850 -475 -143 -45 -152 -49 -174 -78 l-21 -28 21
-37 c24 -42 98 -83 269 -151 309 -123 601 -169 943 -150 897 50 1732 748 1977
1654 102 379 102 770 -2 1140 -145 515 -521 1010 -1013 1333 -77 51 -291 160
-375 192 -33 12 -69 26 -80 31 -124 49 -329 93 -535 114 -160 17 -252 17 -415
0z"/>
<path d="M3235 2760 c-46 -24 -105 -83 -105 -104 0 -10 23 -16 93 -21 366 -27
637 -91 897 -211 l95 -44 -61 59 c-111 106 -311 226 -460 277 -128 43 -185 55
-299 60 -110 5 -123 4 -160 -16z"/>
</g>
</svg>
